# xmcd CD database file
#
# Track frame offsets:
#	150
#	16167
#	28222
#	45738
#	64220
#	79061
#	94845
#	111712
#	130364
#	145791
#	159018
#	173464
#	189473
#	205472
#	217569
#	234775
#	248705
#	265157
#	278613
#
# Disc length: 3916 seconds
#
# Revision: 0
# Processed by: cddbd v1.5.1PL2 Copyright (c) Steve Scherf et al.
# Submitted via: CDex 1.51
#
DISCID=fc0f4a13
DTITLE=Tanya Tucker - 20 Greatest Hits
DYEAR=1900
DGENRE=Country
TTITLE0=Black Water Bayou 
TTITLE1=Walking Shoes
TTITLE2=Some Kind of Trouble
TTITLE3=Little Things
TTITLE4=Don't Go Out
TTITLE5=Soon
TTITLE6=Tanya Tucker-Delbert McClinton - Tell Me About It
TTITLE7=Two Sparrows in a Hurricane
TTITLE8=Hangin' In
TTITLE9=It Won't Be Me
TTITLE10=I'll Take Today
TTITLE11=Oh What It Did to Me
TTITLE12=My Arms Stay Open All Night
TTITLE13=It's a Little Too Late
TTITLE14=We Don't Have to Do This
TTITLE15=If Your Heart Ain't Busy Tonig
TTITLE16=Right About Now
TTITLE17=(Without You) What Do I Do Wit
TTITLE18=Delta Dawn
EXTD=
EXTT0=
EXTT1=
EXTT2=
EXTT3=
EXTT4=
EXTT5=
EXTT6=
EXTT7=
EXTT8=
EXTT9=
EXTT10=
EXTT11=
EXTT12=
EXTT13=
EXTT14=
EXTT15=
EXTT16=
EXTT17=
EXTT18=
PLAYORDER=
